<svg xmlns="http://www.w3.org/2000/svg" width="512" height="512"><path d="m 373.317,56.92701 c -5.89,0 -10.665,4.775 -10.665,10.666 v 64.537 L 283.076,66.659009 c -15.749,-12.959999 -38.468,-12.959999 -54.218,0 L 3.871,251.952 c -4.542,3.75401 -5.179,10.48001 -1.422,15.02001 l 22.665,27.553 c 3.747,4.55599 10.482,5.20599 15.03,1.44999 L 249.211,123.77501 a 10.836,10.836 0 0 1 13.6,0 L 471.888,295.975 c 4.54,3.756 11.267,3.12 15.021,-1.422 l 22.665,-27.554 c 3.754,-4.56799 3.075,-11.317 -1.512,-15.047 l -74.305,-61.24899 v -123.11 c 0,-5.89 -4.775,-10.666 -10.666,-10.666 z m -117.306,100.89 c -2.408,0 -4.816,0.8 -6.8,2.39899 L 85.34,295.183 v 145.669 c 0,7.854 6.366,14.22 14.22,14.22 l 99.602,-0.256 113.697,-0.02 99.566,0.277 c 7.854,0 14.22,-6.367 14.22,-14.221 V 295.085 L 262.81,160.215 a 10.816,10.816 0 0 0 -6.8,-2.398 z m 52.27,85.201 c 4.117,0.053 6.458,2.739 6.458,7.128 0.08,139.04599 0.445,131.57999 -0.726,136.62499 -2.583,11.06 -10.979,17.275 -22.24,19.373 -9.888,1.817 -18.121,2.26 -26.032,-4.117 -9.647,-8.113 -9.768,-21.553 -1.09,-30.03 6.861,-6.538 16.507,-7.869 30.997,-10.412 2.422,-0.444 4.52,-1.00999 6.297,-2.987 2.583,-2.906 1.776,-1.655 1.776,-65.87 0,-4.52 -2.221,-5.77199 -6.863,-4.96499 -3.31,0.56499 -74.95,13.966 -74.95,13.966 -4.117,0.888 -5.41,2.09799 -5.41,6.74 0,94.72799 0.445,90.369 -1.008,96.66499 -1.696,7.346 -6.215,12.876 -12.189,15.943 -6.78,3.754 -19.051,5.409 -25.59,4.198 -17.436,-3.27 -23.571,-23.40899 -11.745,-34.952 6.861,-6.539 16.507,-7.872 30.997,-10.414 2.422,-0.444 4.52,-1.009 6.297,-2.986 4.076,-4.64199 0.726,-103.56799 2.099,-109.058 0.322,-2.098 1.21,-3.87599 2.866,-5.208 1.695,-1.41199 4.763,-2.218 5.409,-2.218 82.338,-15.418 92.387,-17.39599 93.8,-17.39599 0.29,-0.02 0.572,-0.028 0.847,-0.025 z" fill="#bebebe"/></svg>