<svg xmlns="http://www.w3.org/2000/svg" width="16" height="16">
    <path d="M 2.5 3 C 2.223 3 2 3.223 2 3.5 L 2 4.5 C 1.9994456 4.7763717 2.2236283 5.0005544 2.5 5 L 13.5 5 C 13.777 5 14 4.777 14 4.5 L 14 3.5 C 14 3.223 13.777 3 13.5 3 L 2.5 3 z M 2.5 7 C 2.223 7 2 7.223 2 7.5 L 2 8.5 C 1.9994456 8.7763717 2.2236283 9.0005544 2.5 9 L 6.5 9 C 6.777 9 7 8.777 7 8.5 L 7 7.5 C 7 7.223 6.777 7 6.5 7 L 2.5 7 z M 9 7 L 9 8 L 9 13 L 9 14 L 9.9960938 14 C 9.9973938 14.000007 9.9987 13.999998 10 14 C 10.171909 14.000272 10.348345 13.954541 10.513672 13.855469 L 14.513672 11.355469 C 15.159917 10.96688 15.159918 10.031166 14.513672 9.6425781 L 10.513672 7.1425781 C 10.370155 7.0559381 10.206552 7.007183 10.039062 7 C 10.025313 6.99945 10.01363 7.0058594 10 7.0058594 L 10 7 L 9 7 z M 2.5 11 C 2.223 11 2 11.223 2 11.5 L 2 12.5 C 1.9994456 12.776372 2.2236283 13.000554 2.5 13 L 6.5 13 C 6.777 13 7 12.777 7 12.5 L 7 11.5 C 7 11.223 6.777 11 6.5 11 L 2.5 11 z" style="marker:none" color="#bebebe" overflow="visible" fill="#2e3436"/>
</svg>
