<?xml version="1.0" encoding="UTF-8"?>
<svg height="16px" viewBox="0 0 16 16" width="16px" xmlns="http://www.w3.org/2000/svg">
    <path d="m 8.101562 0.351562 c 4.277344 0 7.75 3.46875 7.75 7.75 c 0 4.277344 -3.472656 7.75 -7.75 7.75 c -4.28125 0 -7.75 -3.472656 -7.75 -7.75 c 0 -4.28125 3.46875 -7.75 7.75 -7.75 z m 0 2.742188 c -2.765624 0 -5.007812 2.242188 -5.007812 5.007812 c 0 2.761719 2.242188 5.003907 5.007812 5.003907 c 2.761719 0 5.003907 -2.242188 5.003907 -5.003907 c 0 -2.765624 -2.242188 -5.007812 -5.003907 -5.007812 z m 0 0"/>
    <path d="m 10.335938 6.746094 c 0.742187 -0.171875 1.929687 0.296875 2.75 0.867187 l 0.839843 0.585938 l -0.148437 0.867187 c -0.15625 0.921875 -0.675782 1.964844 -1.328125 2.703125 c -0.882813 1 -2.132813 1.683594 -3.546875 1.988281 c -0.730469 0.15625 -2.203125 0.097657 -2.929688 -0.117187 c -0.949218 -0.277344 -1.804687 -0.722656 -2.523437 -1.335937 c -0.371094 -0.316407 -1.730469 -1.585938 -0.917969 -2.332032 c 0.429688 -0.394531 1.011719 -0.15625 1.242188 -0.085937 c 1.113281 0.335937 2.230468 0.253906 3.21875 -0.21875 c 0.5625 -0.265625 1.316406 -0.925781 1.839843 -1.648438 c 0.449219 -0.625 0.910157 -1.136719 1.503907 -1.273437 z m 0 0"/>
</svg>
