<?xml version="1.0" encoding="UTF-8"?>
<svg height="128px" viewBox="0 0 128 128" width="128px" xmlns="http://www.w3.org/2000/svg" xmlns:xlink="http://www.w3.org/1999/xlink">
    <radialGradient id="a" cx="180.682495" cy="205.017258" gradientTransform="matrix(-1.4942 -0.00000018 0.00000002 -0.603936 355.600843 140.942426)" gradientUnits="userSpaceOnUse" r="48.018993">
        <stop offset="0" stop-color="#62a0ea"/>
        <stop offset="1" stop-color="#ffbe6f"/>
    </radialGradient>
    <radialGradient id="b" cx="144.099533" cy="197.433411" gradientTransform="matrix(0.00000329 0.809241 -1.625062 0 358.091035 -85.527424)" gradientUnits="userSpaceOnUse" r="47.987953">
        <stop offset="0" stop-color="#3584e4"/>
        <stop offset="1" stop-color="#ffbe6f"/>
    </radialGradient>
    <radialGradient id="c" cx="202.506149" cy="191.677155" gradientTransform="matrix(-0.00003842 -0.895252 4.902517 0.00000017 -874.692644 231.282701)" gradientUnits="userSpaceOnUse" r="48.01862">
        <stop offset="0" stop-color="#1c71d8"/>
        <stop offset="1" stop-color="#ffbe6f"/>
    </radialGradient>
    <radialGradient id="d" cx="148.756287" cy="238.261307" gradientTransform="matrix(2.338114 0.0539074 -0.0269572 1.168542 -305.886363 -207.838365)" gradientUnits="userSpaceOnUse" r="46.622646">
        <stop offset="0" stop-color="#1a5fb4"/>
        <stop offset="1" stop-color="#ffbe6f"/>
    </radialGradient>
    <clipPath id="e">
        <rect height="128" width="128"/>
    </clipPath>
    <clipPath id="f">
        <rect height="128" width="128"/>
    </clipPath>
    <filter id="g" height="100%" width="100%" x="0%" y="0%">
        <feColorMatrix in="SourceGraphic" type="matrix" values="0 0 0 0 1 0 0 0 0 1 0 0 0 0 1 0 0 0 1 0"/>
    </filter>
    <mask id="h">
        <g clip-path="url(#f)" filter="url(#g)">
            <g clip-path="url(#e)">
                <path d="m 124 64 c 0 33.136719 -26.863281 60 -60 60 s -60 -26.863281 -60 -60 s 26.863281 -60 60 -60 s 60 26.863281 60 60 z m 0 0" fill="#deddda"/>
                <path d="m 116 64 c 0 28.71875 -23.28125 52 -52 52 s -52 -23.28125 -52 -52 s 23.28125 -52 52 -52 s 52 23.28125 52 52 z m 0 0" fill="url(#a)"/>
                <path d="m 39.453125 18.308594 c -16.613281 8.914062 -27.101563 26.128906 -27.402344 44.984375 c 12.449219 0.027343 27.511719 0.046875 49.117188 0.046875 h 54.816406 c -0.144531 -11.199219 -3.898437 -22.050782 -10.707031 -30.945313 c -6.144532 2.027344 -11 2.816407 -17.242188 2.796875 c -9.128906 -0.03125 -14.125 -1.542968 -23.796875 -7.191406 c -9.5625 -5.589844 -16.574219 -8.367188 -24.785156 -9.691406 z m 0 0" fill="url(#b)"/>
                <path d="m 106.414062 42.992188 c -1.453124 0 -2.886718 0.0625 -4.296874 0.1875 c -10.6875 0.953124 -18.472657 3.695312 -30 10.570312 c -9.667969 5.761719 -14.667969 7.304688 -23.800782 7.335938 c -6.425781 0.023437 -11.367187 -0.820313 -17.777344 -3.027344 c -5.28125 -1.820313 -10.917968 -4.632813 -16.5625 -8.117188 c -1.296874 4.574219 -1.964843 9.304688 -1.976562 14.058594 c 0.042969 9.066406 2.453125 17.96875 6.996094 25.816406 h 56.1875 c 13.703125 0 23.96875 -0.011718 33.828125 -0.019531 c 4.535156 -7.84375 6.945312 -16.738281 6.988281 -25.796875 c -0.003906 -7.140625 -1.480469 -14.207031 -4.335938 -20.753906 c -1.765624 -0.164063 -3.519531 -0.257813 -5.25 -0.253906 z m 0 0" fill="url(#c)"/>
                <path d="m 33.128906 71.710938 c -3.902344 -0.011719 -8.066406 0.390624 -10.980468 1.152343 c -2.824219 0.738281 -5.851563 1.867188 -8.617188 3.144531 c 5.554688 23.394532 26.421875 39.933594 50.46875 39.992188 c 24.113281 -0.058594 45.019531 -16.6875 50.507812 -40.164062 c -4.585937 3.664062 -9.082031 6.566406 -13.613281 8.753906 c -7.5625 3.652344 -13.542969 5.007812 -20.636719 4.671875 c -7.050781 -0.332031 -11.402343 -2.011719 -18.921874 -7.292969 c -7.726563 -5.429688 -14.648438 -8.535156 -21.796876 -9.78125 c -1.824218 -0.316406 -4.070312 -0.46875 -6.410156 -0.476562 z m 0 0" fill="url(#d)"/>
                <path d="m 64 4 c -33.136719 0 -60 26.863281 -60 60 s 26.863281 60 60 60 s 60 -26.863281 60 -60 s -26.863281 -60 -60 -60 z m 0 8 c 28.71875 0 52 23.28125 52 52 s -23.28125 52 -52 52 s -52 -23.28125 -52 -52 s 23.28125 -52 52 -52 z m 0 0" fill="#deddda"/>
            </g>
        </g>
    </mask>
    <mask id="i">
        <g filter="url(#g)">
            <rect fill-opacity="0.8" height="128" width="128"/>
        </g>
    </mask>
    <linearGradient id="j" gradientTransform="matrix(0 0.37 -0.98462 0 295.38501 -30.360001)" gradientUnits="userSpaceOnUse" x1="300" x2="428" y1="235" y2="235">
        <stop offset="0" stop-color="#f9f06b"/>
        <stop offset="1" stop-color="#f5c211"/>
    </linearGradient>
    <clipPath id="k">
        <rect height="128" width="128"/>
    </clipPath>
    <clipPath id="l">
        <rect height="128" width="128"/>
    </clipPath>
    <path d="m 124 64 c 0 33.136719 -26.863281 60 -60 60 s -60 -26.863281 -60 -60 s 26.863281 -60 60 -60 s 60 26.863281 60 60 z m 0 0" fill="#deddda"/>
    <path d="m 116 64 c 0 28.71875 -23.28125 52 -52 52 s -52 -23.28125 -52 -52 s 23.28125 -52 52 -52 s 52 23.28125 52 52 z m 0 0" fill="url(#a)"/>
    <path d="m 39.453125 18.308594 c -16.613281 8.914062 -27.101563 26.128906 -27.402344 44.984375 c 12.449219 0.027343 27.511719 0.046875 49.117188 0.046875 h 54.816406 c -0.144531 -11.199219 -3.898437 -22.050782 -10.707031 -30.945313 c -6.144532 2.027344 -11 2.816407 -17.242188 2.796875 c -9.128906 -0.03125 -14.125 -1.542968 -23.796875 -7.191406 c -9.5625 -5.589844 -16.574219 -8.367188 -24.785156 -9.691406 z m 0 0" fill="url(#b)"/>
    <path d="m 106.414062 42.992188 c -1.453124 0 -2.886718 0.0625 -4.296874 0.1875 c -10.6875 0.953124 -18.472657 3.695312 -30 10.570312 c -9.667969 5.761719 -14.667969 7.304688 -23.800782 7.335938 c -6.425781 0.023437 -11.367187 -0.820313 -17.777344 -3.027344 c -5.28125 -1.820313 -10.917968 -4.632813 -16.5625 -8.117188 c -1.296874 4.574219 -1.964843 9.304688 -1.976562 14.058594 c 0.042969 9.066406 2.453125 17.96875 6.996094 25.816406 h 56.1875 c 13.703125 0 23.96875 -0.011718 33.828125 -0.019531 c 4.535156 -7.84375 6.945312 -16.738281 6.988281 -25.796875 c -0.003906 -7.140625 -1.480469 -14.207031 -4.335938 -20.753906 c -1.765624 -0.164063 -3.519531 -0.257813 -5.25 -0.253906 z m 0 0" fill="url(#c)"/>
    <path d="m 33.128906 71.710938 c -3.902344 -0.011719 -8.066406 0.390624 -10.980468 1.152343 c -2.824219 0.738281 -5.851563 1.867188 -8.617188 3.144531 c 5.554688 23.394532 26.421875 39.933594 50.46875 39.992188 c 24.113281 -0.058594 45.019531 -16.6875 50.507812 -40.164062 c -4.585937 3.664062 -9.082031 6.566406 -13.613281 8.753906 c -7.5625 3.652344 -13.542969 5.007812 -20.636719 4.671875 c -7.050781 -0.332031 -11.402343 -2.011719 -18.921874 -7.292969 c -7.726563 -5.429688 -14.648438 -8.535156 -21.796876 -9.78125 c -1.824218 -0.316406 -4.070312 -0.46875 -6.410156 -0.476562 z m 0 0" fill="url(#d)"/>
    <path d="m 64 4 c -33.136719 0 -60 26.863281 -60 60 s 26.863281 60 60 60 s 60 -26.863281 60 -60 s -26.863281 -60 -60 -60 z m 0 8 c 28.71875 0 52 23.28125 52 52 s -23.28125 52 -52 52 s -52 -23.28125 -52 -52 s 23.28125 -52 52 -52 z m 0 0" fill="#deddda"/>
    <g clip-path="url(#l)" mask="url(#h)">
        <g clip-path="url(#k)" mask="url(#i)">
            <path d="m 128 80.640625 v 47.359375 h -128 v -47.359375 z m 0 0" fill="url(#j)"/>
            <path d="m 13.308594 80.640625 l 47.355468 47.359375 h 21.214844 l -47.359375 -47.359375 z m 42.421875 0 l 47.363281 47.359375 h 21.214844 l -47.363282 -47.359375 z m 42.429687 0 l 29.839844 29.839844 v -21.210938 l -8.628906 -8.628906 z m -98.160156 7.90625 v 21.214844 l 18.238281 18.238281 h 21.214844 z m 0 0"/>
        </g>
    </g>
</svg>
